# xmcd CD database file
#
# Track frame offsets:
#	150
#	19512
#	39375
#	52572
#	63282
#	86450
#	112050
#	128710
#	152557
#	163507
#	180102
#	194270
#	219987
#
# Disc length: 3082 seconds
#
# Revision: 0
# Processed by: cddbd v1.4PL0 Copyright (c) Steve Scherf et al.
# Submitted via: CDex 1.50beta10
#
DISCID=920c080d
DTITLE=David Roe and The Royal Rounders - Angel of New Orleans
DYEAR=1999
DGENRE=Jazz
TTITLE0=When You're Smiling
TTITLE1=Bye Bye Blues
TTITLE2=Bill Bailey
TTITLE3=No, It Ain't My Fault
TTITLE4=That's a Plenty
TTITLE5=Spirit of Change
TTITLE6=Turbo Jet
TTITLE7=City of New Orleans
TTITLE8=Old Man River
TTITLE9=Just a Little While to Stay Here
TTITLE10=I Wish I Was in New Orleans
TTITLE11=Back in Your Own Back Yard
TTITLE12=Dream a Little Dream of Me
EXTD=YEAR: 1999
EXTT0=
EXTT1=
EXTT2=
EXTT3=
EXTT4=
EXTT5=
EXTT6=
EXTT7=
EXTT8=
EXTT9=
EXTT10=
EXTT11=
EXTT12=
PLAYORDER=
